<?xml version="1.0" standalone="no"?>
<!DOCTYPE svg PUBLIC "-//W3C//DTD SVG 20010904//EN"
 "http://www.w3.org/TR/2001/REC-SVG-20010904/DTD/svg10.dtd">
<svg version="1.0" xmlns="http://www.w3.org/2000/svg"
 width="260.000000pt" height="260.000000pt" viewBox="0 0 260.000000 260.000000"
 preserveAspectRatio="xMidYMid meet">
<metadata>
Created by potrace 1.11, written by Peter Selinger 2001-2013
</metadata>
<g transform="translate(0.000000,260.000000) scale(0.100000,-0.100000)"
fill="#000000" stroke="none">
<path d="M1173 2320 c-86 -13 -96 -17 -135 -57 -31 -32 -37 -46 -40 -90 l-3
-52 -75 -6 c-153 -12 -164 -15 -219 -52 -29 -20 -55 -43 -58 -50 -4 -9 -10
-10 -23 -3 -44 23 -120 3 -120 -32 0 -6 -17 -8 -47 -3 -170 23 -298 -14 -361
-105 -26 -39 -58 -136 -72 -223 -18 -108 -23 -403 -11 -687 l11 -275 31 -62
c88 -180 252 -272 534 -298 430 -41 1170 -53 1543 -26 186 13 194 15 244 45
63 38 126 126 157 219 24 72 50 262 51 370 0 38 4 67 10 67 6 0 10 80 10 220
0 140 -4 220 -10 220 -5 0 -10 23 -10 51 0 111 -22 243 -48 292 -46 86 -154
166 -248 182 -21 4 -47 15 -58 24 -25 22 -165 20 -201 -3 -15 -10 -46 -16 -85
-16 -53 0 -65 4 -106 35 -25 19 -76 53 -113 75 l-68 41 -7 55 c-11 91 -27 119
-77 133 -54 15 -325 23 -396 11z m382 -38 c38 -11 53 -57 54 -169 1 -67 -2
-83 -14 -83 -11 0 -14 13 -13 58 2 100 -9 138 -45 154 -40 16 -284 17 -342 0
-75 -21 -79 -28 -83 -141 -3 -80 -7 -101 -19 -101 -12 0 -14 21 -11 130 2 79
7 133 14 140 7 7 36 16 65 20 64 11 351 5 394 -8z m-48 -69 c30 -5 32 -8 38
-57 4 -28 5 -69 3 -91 l-3 -40 -110 -12 c-60 -6 -151 -12 -201 -12 l-92 -1 -7
65 c-10 99 -2 122 48 136 93 26 217 31 324 12z m-470 -40 c-3 -10 -5 -4 -5 12
0 17 2 24 5 18 2 -7 2 -21 0 -30z m-39 -138 l-3 -44 49 -12 c90 -22 533 3 588
32 11 6 18 21 18 40 0 17 5 29 10 27 6 -2 44 -28 85 -58 l75 -55 -238 -6
c-232 -7 -575 -26 -599 -34 -10 -3 -44 23 -192 151 -2 2 44 4 103 4 l108 0 -4
-45z m-152 -52 l84 -77 -37 -38 c-21 -21 -43 -36 -50 -34 -7 3 -51 38 -98 77
-82 70 -84 73 -67 92 15 17 71 57 80 57 2 0 41 -35 88 -77z m191 35 c-3 -8 -6
-5 -6 6 -1 11 2 17 5 13 3 -3 4 -12 1 -19z m-460 -34 c-3 -3 -12 -4 -19 -1 -8
3 -5 6 6 6 11 1 17 -2 13 -5z m30 -56 c-3 -7 -5 -2 -5 12 0 14 2 19 5 13 2 -7
2 -19 0 -25z m-322 -8 c-26 -42 54 -80 121 -57 34 11 39 16 36 40 -2 24 1 27
28 27 20 0 30 -5 30 -15 0 -20 32 -35 74 -35 33 0 66 20 66 41 0 24 41 2 102
-54 l68 -63 -93 -12 c-51 -6 -122 -21 -158 -32 -70 -22 -169 -75 -169 -90 0
-16 17 -12 78 19 131 65 121 65 842 69 589 3 1011 -6 1161 -24 l46 -6 12 -140
c7 -76 11 -141 8 -144 -3 -3 -49 0 -103 6 -55 6 -187 13 -294 17 l-195 6 -54
49 c-121 111 -328 174 -486 148 -122 -20 -247 -81 -350 -172 -47 -43 -58 -48
-100 -48 -36 0 -54 6 -77 25 -19 16 -42 25 -63 25 -21 0 -44 -9 -63 -25 -38
-32 -44 -31 -80 5 -39 39 -92 41 -127 5 -14 -13 -25 -29 -25 -35 0 -6 -29 -10
-75 -10 -86 0 -81 -9 -61 115 8 44 10 84 6 88 -10 11 -46 -78 -54 -136 -8 -55
7 -59 -163 41 -97 57 -113 70 -113 92 1 38 18 108 42 161 l20 49 37 -29 c68
-53 193 -131 203 -125 15 9 -10 32 -121 110 l-103 74 53 25 c55 25 105 33 94
15z m1442 3 c157 -7 153 -5 168 -87 l7 -36 -511 0 c-496 0 -511 1 -502 19 6
10 26 32 45 48 37 34 59 36 401 53 223 10 238 10 392 3z m273 -22 l0 -29 94
-11 c52 -7 110 -9 130 -6 32 6 36 11 36 37 0 26 3 29 23 22 71 -22 197 -102
197 -125 0 -6 -29 -8 -72 -5 -40 3 -161 9 -270 12 l-196 6 -7 36 c-4 20 -13
49 -21 64 l-15 28 51 0 c48 0 50 -1 50 -29z m157 -7 c-3 -3 -12 -4 -19 -1 -8
3 -5 6 6 6 11 1 17 -2 13 -5z m-554 -365 c168 -32 324 -193 367 -378 51 -220
-107 -455 -354 -526 -43 -13 -85 -16 -155 -13 -86 3 -104 7 -174 41 -106 50
-189 133 -243 241 -38 78 -39 82 -39 190 0 108 1 113 35 176 19 36 62 92 95
125 88 88 181 133 330 158 23 4 70 -1 138 -14z m-959 -65 c20 -19 20 -23 -1
-46 -18 -20 -45 -23 -74 -8 -36 20 -11 70 36 70 13 0 31 -7 39 -16z m200 0
c26 -10 20 -53 -9 -66 -49 -22 -98 25 -63 60 13 13 47 16 72 6z m306 -8 c0 -2
-8 -10 -17 -17 -16 -13 -17 -12 -4 4 13 16 21 21 21 13z m978 -43 c-15 -2 -42
-2 -60 0 -18 2 -6 4 27 4 33 0 48 -2 33 -4z m230 -10 c-10 -2 -26 -2 -35 0
-10 3 -2 5 17 5 19 0 27 -2 18 -5z m-1468 -27 c0 -2 -7 -7 -16 -10 -8 -3 -12
-2 -9 4 6 10 25 14 25 6z m1031 -13 c13 -16 12 -17 -3 -4 -10 7 -18 15 -18 17
0 8 8 3 21 -13z m616 -35 c-3 -8 -6 -5 -6 6 -1 11 2 17 5 13 3 -3 4 -12 1 -19z
m0 -70 c-3 -7 -5 -2 -5 12 0 14 2 19 5 13 2 -7 2 -19 0 -25z m-52 5 c14 -33
17 -227 6 -303 -14 -91 -47 -164 -77 -168 -39 -6 -39 32 1 193 10 40 19 115
20 175 1 58 3 108 3 113 4 14 40 7 47 -10z m52 -45 c-3 -8 -6 -5 -6 6 -1 11 2
17 5 13 3 -3 4 -12 1 -19z m-1827 -25 c0 -5 -14 -8 -30 -9 -17 -1 -30 3 -30 7
0 5 14 9 30 9 17 0 30 -3 30 -7z m-2 -118 c-3 -81 -4 -85 -25 -85 -22 0 -23 4
-23 85 0 84 0 85 25 85 25 0 25 0 23 -85z m199 -57 c-3 -8 -6 -5 -6 6 -1 11 2
17 5 13 3 -3 4 -12 1 -19z m1110 -40 c-3 -8 -6 -5 -6 6 -1 11 2 17 5 13 3 -3
4 -12 1 -19z m-1307 -43 c0 -20 -5 -25 -25 -25 -20 0 -25 5 -25 25 0 20 5 25
25 25 20 0 25 -5 25 -25z m1817 -27 c-3 -7 -5 -2 -5 12 0 14 2 19 5 13 2 -7 2
-19 0 -25z m-1867 -38 c0 -5 -2 -10 -4 -10 -3 0 -8 5 -11 10 -3 6 -1 10 4 10
6 0 11 -4 11 -10z m85 -10 c3 -5 -1 -10 -10 -10 -9 0 -13 5 -10 10 3 6 8 10
10 10 2 0 7 -4 10 -10z m-120 -10 c3 -5 -1 -10 -10 -10 -9 0 -13 5 -10 10 3 6
8 10 10 10 2 0 7 -4 10 -10z m-5 -40 c0 -5 -5 -10 -11 -10 -5 0 -7 5 -4 10 3
6 8 10 11 10 2 0 4 -4 4 -10z m130 0 c0 -5 -2 -10 -4 -10 -3 0 -8 5 -11 10 -3
6 -1 10 4 10 6 0 11 -4 11 -10z m-90 -25 c0 -8 -7 -15 -15 -15 -16 0 -20 12
-8 23 11 12 23 8 23 -8z m54 -6 c-8 -14 -24 -10 -24 6 0 9 6 12 15 9 8 -4 12
-10 9 -15z m-591 -63 c31 -18 90 -48 132 -67 l75 -34 0 -50 c0 -28 6 -74 14
-103 7 -29 9 -52 4 -52 -31 0 -131 66 -171 113 -63 73 -117 165 -117 199 0 15
2 28 4 28 2 0 29 -15 59 -34z m1837 21 c0 -1 -24 -25 -52 -52 l-53 -50 50 53
c46 48 55 57 55 49z m-905 -27 c10 -11 16 -20 13 -20 -3 0 -13 9 -23 20 -10
11 -16 20 -13 20 3 0 13 -9 23 -20z m-55 -25 c7 -9 8 -15 2 -15 -5 0 -12 7
-16 15 -3 8 -4 15 -2 15 2 0 9 -7 16 -15z m-153 -12 c-20 -2 -52 -2 -70 0 -17
2 0 4 38 4 39 0 53 -2 32 -4z m1663 -27 c0 -19 -57 -157 -77 -187 -25 -39 -79
-81 -124 -97 -148 -56 -1547 -41 -1855 19 -48 9 -52 12 -64 51 -6 23 -15 74
-19 113 l-7 72 225 6 c123 4 279 7 345 7 l122 0 54 -41 c224 -170 515 -170
758 1 l58 40 254 8 c140 5 272 10 293 10 20 1 37 0 37 -2z m-1053 -82 c-3 -3
-12 -4 -19 -1 -8 3 -5 6 6 6 11 1 17 -2 13 -5z m-20 -50 c-3 -3 -12 -4 -19 -1
-8 3 -5 6 6 6 11 1 17 -2 13 -5z"/>
<path d="M1214 2191 c-51 -13 -54 -18 -54 -96 0 -59 3 -74 17 -79 20 -8 288
13 321 25 20 8 22 15 22 74 0 61 -2 66 -26 75 -29 11 -234 12 -280 1z m276
-31 c0 -5 -7 -7 -15 -4 -8 4 -15 8 -15 10 0 2 7 4 15 4 8 0 15 -4 15 -10z
m-47 -97 c-7 -2 -21 -2 -30 0 -10 3 -4 5 12 5 17 0 24 -2 18 -5z m-90 -10 c-7
-2 -19 -2 -25 0 -7 3 -2 5 12 5 14 0 19 -2 13 -5z"/>
<path d="M1385 1486 c-165 -53 -303 -194 -336 -345 -34 -160 80 -360 256 -447
211 -104 481 -10 592 206 25 50 28 65 28 161 0 101 -1 108 -37 180 -43 88
-118 168 -187 203 -101 52 -231 69 -316 42z m101 -198 c82 -56 107 -133 68
-210 -27 -54 -55 -78 -110 -94 -69 -20 -122 -6 -176 44 -112 105 -37 292 118
292 42 0 61 -6 100 -32z m211 -280 c33 -31 32 -90 -3 -117 -30 -23 -90 -28
-115 -8 -44 34 -47 103 -6 132 32 23 96 19 124 -7z"/>
</g>
</svg>
